<svg width="14" height="14" viewBox="0 0 12 12" fill="none" xmlns="http://www.w3.org/2000/svg">
<path d="M10.8732 7.9565C9.91837 8.34045 8.87179 8.43533 7.86353 8.22934C6.85526 8.02335 5.92976 7.52558 5.20209 6.7979C4.47441 6.07022 3.97663 5.14472 3.77065 4.13646C3.56466 3.12819 3.65953 2.08162 4.04349 1.12683C2.91282 1.58226 1.97578 2.41681 1.39301 3.48742C0.810238 4.55803 0.61803 5.79802 0.849335 6.99481C1.08064 8.19161 1.72105 9.27068 2.66078 10.047C3.60052 10.8234 4.78104 11.2487 5.99999 11.25C7.04819 11.25 8.07242 10.9364 8.94088 10.3495C9.80935 9.76251 10.4823 8.92911 10.8732 7.9565Z" stroke="#9E9CA4" stroke-linecap="round" stroke-linejoin="round"/>
</svg>
