<svg width="199" height="566" viewBox="0 0 199 566" fill="none" xmlns="http://www.w3.org/2000/svg">
<g opacity="0.64" filter="url(#filter0_f_470_1668)">
<path d="M162.75 536.999C162.75 540.865 148.75 549.999 105.75 549.999C62.75 549.999 48.75 540.865 48.75 536.999C48.75 533.133 74.2698 530.999 105.75 530.999C137.23 530.999 162.75 533.133 162.75 536.999Z" fill="black"/>
</g>
<path d="M171.75 419.999C171.75 424.633 163.75 534.999 163.5 535.699C163.5 535.699 162.125 549.999 105.75 549.999C49.375 549.999 48 535.699 48 535.699C47.75 534.999 39.75 424.371 39.75 419.999C39.75 414.999 69.2992 408.999 105.75 408.999C142.201 408.999 171.75 414.499 171.75 419.999Z" fill="#A58465"/>
<path d="M171.75 419.999C171.75 424.633 163.75 534.999 163.5 535.699C163.5 535.699 162.125 549.999 105.75 549.999C49.375 549.999 48 535.699 48 535.699C47.75 534.999 39.75 424.371 39.75 419.999C39.75 414.999 69.2992 408.999 105.75 408.999C142.201 408.999 171.75 414.499 171.75 419.999Z" fill="url(#paint0_linear_470_1668)" fill-opacity="0.32"/>
<g filter="url(#filter1_i_470_1668)">
<ellipse cx="105.75" cy="419.999" rx="66" ry="11" fill="#6D5947"/>
</g>
<g filter="url(#filter2_i_470_1668)">
<path fill-rule="evenodd" clip-rule="evenodd" d="M122.24 428.892C118.401 428.792 115.083 428.526 112.336 428.155C108.585 429.061 103.325 429.624 97.5 429.624C91.8061 429.624 86.651 429.086 82.9189 428.215C81.8427 428.237 80.743 428.249 79.625 428.249C66.7153 428.249 56.25 426.71 56.25 424.812C56.25 422.913 66.7153 421.374 79.625 421.374C80.743 421.374 81.8427 421.386 82.9189 421.408C86.651 420.537 91.8061 419.999 97.5 419.999C104.372 419.999 110.459 420.783 114.208 421.989C115.91 421.833 117.761 421.703 119.726 421.603C121.866 420.619 124.976 419.999 128.438 419.999C131.816 419.999 134.859 420.589 136.993 421.533C147.576 421.972 155.25 423.274 155.25 424.812C155.25 426.271 146.304 427.925 135.611 428.611C133.631 429.246 131.141 429.624 128.438 429.624C126.161 429.624 124.036 429.356 122.24 428.892Z" fill="#51483A"/>
</g>
<path d="M170.375 419.999C170.375 420.158 170.28 420.548 169.541 421.15C168.819 421.738 167.67 422.367 166.059 423.001C162.851 424.266 158.128 425.432 152.193 426.421C140.345 428.396 123.924 429.624 105.75 429.624C87.5762 429.624 71.1554 428.396 59.307 426.421C53.3717 425.432 48.6486 424.266 45.4407 423.001C43.8299 422.367 42.6812 421.738 41.9592 421.15C41.2201 420.548 41.125 420.158 41.125 419.999C41.125 419.84 41.2201 419.45 41.9592 418.848C42.6812 418.26 43.8299 417.631 45.4407 416.997C48.6486 415.733 53.3717 414.566 59.307 413.577C71.1554 411.602 87.5762 410.374 105.75 410.374C123.924 410.374 140.345 411.602 152.193 413.577C158.128 414.566 162.851 415.733 166.059 416.997C167.67 417.631 168.819 418.26 169.541 418.848C170.28 419.45 170.375 419.84 170.375 419.999Z" stroke="#A38263" stroke-width="2.75"/>
<path d="M70.25 32.4997C70.75 33.4997 75.0834 36.4997 77.25 37.9997L77.25 39.4998C74.9167 37.8331 70.15 34.3998 69.75 33.9998C69.25 33.4998 68.25 31.9997 68.75 30.9997C69.25 29.9997 69.75 31.4997 70.25 32.4997Z" fill="#286114"/>
<path d="M68.6326 133C69.1326 133.33 75.4655 138.83 77.6321 140.33L76.1321 142.5C73.7988 140.833 68.5321 134.73 68.1321 134.33C67.6321 133.83 66.0225 132.135 67.1324 132C67.1324 132 68.1326 132.67 68.6326 133Z" fill="#1E3D12"/>
<path d="M4.25 231C5.85 231.4 7.58333 230.167 8.25 229.5L8.75 233C7.75 233.167 5.05001 233.1 2.25 231.5C-1.25 229.5 0.250002 226.5 0.750006 225.5L0.75001 225.5C1.25001 224.5 3.75 224 2.25 226.5C0.749999 229 2.25 230.5 4.25 231Z" fill="#286114"/>
<path d="M7.75002 179C10.55 179.4 12.25 183.167 12.75 185C14.5833 183.667 18.25 180.9 18.25 180.5C18.25 180 12.75 178 10.75 177.5C8.75002 177 4.25002 178.5 7.75002 179Z" fill="#1E3D12"/>
<path d="M68.25 84.4998C70.5127 82.8027 74.1002 83.057 75.7502 83.9998C76.1037 81.7606 76.6035 79.8186 76.3207 79.5358C75.9671 79.1823 70.6639 81.6571 68.8961 82.7178C67.1284 83.7785 65.4216 86.6211 68.25 84.4998Z" fill="#1E3D12"/>
<path d="M67.25 230.5C66.85 233.3 63.4167 234.334 61.75 234.5L62.75 238C63.5833 238 64.65 236 66.25 236C68.25 236 70.25 241 70.25 239.5C70.25 238.3 68.75 237.334 68.25 235.5C67.9167 233.667 67.65 227.7 67.25 230.5Z" fill="#286114"/>
<path d="M176.75 245.5L164.75 238.5C166.25 236.667 169.35 233.6 169.75 236C170.15 238.4 174.583 243.334 176.75 245.5Z" fill="#1E3D12"/>
<path d="M64.7502 179.176L87.5592 187.026C85.6963 191.182 84.384 197.65 82.4467 193.383C80.5095 189.115 69.8419 182.133 64.7502 179.176Z" fill="#1E3D12"/>
<path d="M15.7499 307.52L30.1688 300.485C31.2472 303.316 33.672 306.975 30.7538 305.879C27.8355 304.783 19.5352 306.516 15.7499 307.52Z" fill="#1E3D12"/>
<path d="M144.981 299.382L132.874 309.909C131.1 307.454 127.811 304.548 130.913 304.851C134.016 305.154 141.585 301.331 144.981 299.382Z" fill="#1E3D12"/>
<path d="M198.333 199.99L184.441 199.928C184.823 197.59 185.974 193.385 187.521 195.263C189.067 197.142 195.373 199.197 198.333 199.99Z" fill="#1E3D12"/>
<path d="M146.333 100.99L132.441 100.928C132.823 98.5904 133.974 94.3846 135.521 96.2631C137.067 98.1416 143.373 100.197 146.333 100.99Z" fill="#1E3D12"/>
<path d="M101.091 0.00031578L104.626 13.4353C102.269 13.671 97.9087 13.6475 99.3229 11.6676C100.737 9.68768 101.091 3.06445 101.091 0.00031578Z" fill="#1E3D12"/>
<path d="M148.75 119C148.25 118.5 146.75 117.499 149.75 115.999C152.15 114.799 154.083 120.833 154.75 123.999L153.25 124.5C152.75 122.666 151.65 119.1 151.25 119.5C150.75 120 149.25 119.5 148.75 119Z" fill="#286114"/>
<g filter="url(#filter3_ii_470_1668)">
<path d="M48.7502 333.5C53.7502 341 73.2502 362.5 82.7502 368.5C100.75 383.5 89.3214 303 88.25 301.5C85.75 298 74.75 282 72.75 276C70.75 270 66.25 252 63.75 239.5C61.25 227 59.75 215.5 53.75 199C47.75 182.5 38.25 176.5 35.25 176C32.25 175.5 25.25 174 16.75 179.5C8.25 185 8.75022 198 7.75021 205C6.75021 212 7.75022 229.5 9.75022 239.5C11.7502 249.5 16.2502 271 21.2502 284.5C26.2502 298 43.7502 326 48.7502 333.5Z" fill="url(#paint1_linear_470_1668)"/>
</g>
<g filter="url(#filter4_f_470_1668)">
<path d="M55 326C13 287 13.9998 210.5 13.4998 200C13.0471 190.492 23.8963 203.581 24.3609 213.089C27.2304 271.803 46.6222 303.783 61.6511 317.428C67.2072 322.473 73.4078 327.231 76.658 333.995C81.5095 344.092 80.6002 349.772 55 326Z" fill="url(#paint2_linear_470_1668)"/>
</g>
<g opacity="0.8" filter="url(#filter5_f_470_1668)">
<path d="M68 320C26 281 26.9998 204.5 26.4998 194C26.0471 184.492 36.8963 197.581 37.3609 207.089C40.2304 265.803 59.6222 297.783 74.6511 311.428C80.2072 316.473 86.4078 321.231 89.658 327.995C94.5095 338.092 93.6002 343.772 68 320Z" fill="url(#paint3_linear_470_1668)"/>
</g>
<g opacity="0.4" filter="url(#filter6_f_470_1668)">
<path d="M74.0672 299.46C42.6379 270.2 43.3861 212.804 43.0119 204.926C42.6736 197.802 50.792 207.605 51.1386 214.728C53.1527 256.117 66.0805 279.804 76.9641 291.012C82.1936 296.397 88.854 301.046 91.4053 308.106C93.4465 313.754 90.8315 315.068 74.0672 299.46Z" fill="url(#paint4_linear_470_1668)"/>
</g>
<path d="M6.75005 249.185C6.75005 249.185 13.9026 248.306 16.1422 249.185C18.3818 250.064 14.7964 254.878 13.25 253C11.7036 251.122 9.70977 249.978 6.75005 249.185Z" fill="#1E3D12"/>
<mask id="mask0_470_1668" style="mask-type:alpha" maskUnits="userSpaceOnUse" x="7" y="175" width="86" height="196">
<path d="M48.7502 333.5C53.7502 341 73.2502 362.5 82.7502 368.5C100.75 383.5 89.3214 303 88.25 301.5C85.75 298 74.75 282 72.75 276C70.75 270 66.25 252 63.75 239.5C61.25 227 59.75 215.5 53.75 199C47.75 182.5 38.25 176.5 35.25 176C32.25 175.5 25.25 174 16.75 179.5C8.25 185 8.75022 198 7.75021 205C6.75021 212 7.75022 229.5 9.75022 239.5C11.7502 249.5 16.2502 271 21.2502 284.5C26.2502 298 43.7502 326 48.7502 333.5Z" fill="url(#paint5_linear_470_1668)"/>
</mask>
<g mask="url(#mask0_470_1668)">
<g opacity="0.32" filter="url(#filter7_f_470_1668)">
<path d="M69.8609 353.89C67.236 344.094 52.1171 242.201 59.5856 240.2C67.0541 238.199 94.282 336.847 96.9069 346.643C99.5318 356.439 95.6052 366.003 88.1367 368.004C80.6682 370.006 72.4858 363.686 69.8609 353.89Z" fill="black"/>
</g>
</g>
<path d="M137.513 329.582C138.013 329.082 139.013 327.582 140.513 330.582C141.713 332.982 135.679 334.915 132.513 335.582L132.013 334.082C133.846 333.582 137.413 332.482 137.013 332.082C136.513 331.582 137.013 330.082 137.513 329.582Z" fill="#286114"/>
<path d="M69.7502 313.123C69.7502 313.123 76.359 314.387 77.847 314.971C79.335 315.555 76.828 319.318 75.8006 318.07C74.7732 316.822 71.7166 313.649 69.7502 313.123Z" fill="#1E3D12"/>
<path d="M67.75 384.092C67.75 384.092 74.1861 390.771 76.3913 391.733C78.5966 392.695 79.9338 386.022 77.512 386.257C75.0903 386.491 70.4037 385.624 67.75 384.092Z" fill="#1E3D12"/>
<g filter="url(#filter8_i_470_1668)">
<path d="M75.2498 322.999C75.2498 346.199 76.2498 407.999 77.7498 428.999C77.7498 428.999 85.0499 430.399 106.25 429.999C127.45 429.599 134.25 428.5 134.25 428.5C133.583 337.5 132.65 126.5 134.25 114.5C136.25 99.4995 137.25 51.4994 134.25 42.9994C131.25 34.4994 117.25 11.9994 100.25 12.4994C83.25 12.9994 80.2498 28.9994 77.2498 39.4994C74.2498 49.9994 75.2498 82.4994 75.2498 100.499V230.499V322.999Z" fill="#51A234"/>
<path d="M75.2498 322.999C75.2498 346.199 76.2498 407.999 77.7498 428.999C77.7498 428.999 85.0499 430.399 106.25 429.999C127.45 429.599 134.25 428.5 134.25 428.5C133.583 337.5 132.65 126.5 134.25 114.5C136.25 99.4995 137.25 51.4994 134.25 42.9994C131.25 34.4994 117.25 11.9994 100.25 12.4994C83.25 12.9994 80.2498 28.9994 77.2498 39.4994C74.2498 49.9994 75.2498 82.4994 75.2498 100.499V230.499V322.999Z" fill="url(#paint6_linear_470_1668)" fill-opacity="0.24"/>
</g>
<mask id="mask1_470_1668" style="mask-type:alpha" maskUnits="userSpaceOnUse" x="75" y="12" width="62" height="419">
<path d="M75.2498 323C75.2498 346.2 76.2498 408 77.7498 429C77.7498 429 85.0499 430.4 106.25 430C127.45 429.6 134.25 428.5 134.25 428.5C133.583 337.5 132.65 126.5 134.25 114.5C136.25 99.5005 137.25 51.5004 134.25 43.0004C131.25 34.5004 117.25 12.0004 100.25 12.5004C83.25 13.0004 80.2498 29.0004 77.2498 39.5004C74.2498 50.0004 75.2498 82.5004 75.2498 100.5V230.5V323Z" fill="#51A234"/>
<path d="M75.2498 323C75.2498 346.2 76.2498 408 77.7498 429C77.7498 429 85.0499 430.4 106.25 430C127.45 429.6 134.25 428.5 134.25 428.5C133.583 337.5 132.65 126.5 134.25 114.5C136.25 99.5005 137.25 51.5004 134.25 43.0004C131.25 34.5004 117.25 12.0004 100.25 12.5004C83.25 13.0004 80.2498 29.0004 77.2498 39.5004C74.2498 50.0004 75.2498 82.5004 75.2498 100.5V230.5V323Z" fill="url(#paint7_linear_470_1668)" fill-opacity="0.24"/>
</mask>
<g mask="url(#mask1_470_1668)">
<g filter="url(#filter9_f_470_1668)">
<rect x="82" y="25" width="14" height="415" rx="7" fill="url(#paint8_linear_470_1668)"/>
</g>
<g opacity="0.8" filter="url(#filter10_f_470_1668)">
<rect x="103" y="23" width="6" height="417" rx="3" fill="url(#paint9_linear_470_1668)"/>
</g>
<g opacity="0.4" filter="url(#filter11_f_470_1668)">
<path d="M119 54C119 51.7909 120.791 50 123 50C125.209 50 127 51.7909 127 54V455C127 457.209 125.209 459 123 459C120.791 459 119 457.209 119 455V54Z" fill="url(#paint10_linear_470_1668)"/>
</g>
<g opacity="0.24" filter="url(#filter12_f_470_1668)">
<path d="M135.75 244.158C135.75 252.529 120.62 337 110.679 337C100.737 337 99.75 252.529 99.75 244.158C99.75 235.786 107.809 229 117.75 229C127.691 229 135.75 235.786 135.75 244.158Z" fill="black"/>
</g>
<g opacity="0.24" filter="url(#filter13_f_470_1668)">
<path d="M65.89 404.56C73.9763 406.727 151.653 443.204 149.08 452.806C146.507 462.409 64.6588 441.5 56.5726 439.333C48.4863 437.167 44.0169 427.626 46.5899 418.023C49.1628 408.421 57.8038 402.393 65.89 404.56Z" fill="black"/>
</g>
</g>
<path d="M85.9165 292C85.9165 292 86.9186 299.136 88.3474 301.072C89.7762 303.008 94.271 297.897 92.0563 296.889C89.8416 295.882 87.4486 294.653 85.9165 292Z" fill="#1E3D12"/>
<path d="M79.7652 398.786C79.7652 398.786 86.7364 400.063 88.976 399.184C91.2156 398.305 88.8567 393.436 87.3103 395.315C85.7639 397.193 82.7249 397.993 79.7652 398.786Z" fill="#1E3D12"/>
<path d="M137.285 365C137.285 365 133.237 371.112 130.75 373.5C128.263 375.888 124.878 370.886 128.25 370L128.303 369.986C131.651 369.106 134.493 368.359 137.285 365Z" fill="#1E3D12"/>
<path d="M136.75 161.381C136.75 161.381 126.25 156.262 124.75 154.381C123.25 152.499 129.35 149.481 129.75 151.881C130.15 154.281 134.583 159.214 136.75 161.381Z" fill="#1E3D12"/>
<g filter="url(#filter14_ii_470_1668)">
<path d="M142.75 197C136.75 208.2 115.917 223 110.75 229C100.75 241.467 103.25 250.5 103.75 253C104.25 255.5 107.75 267.5 122.25 265C136.75 262.5 162.25 248 175.25 229C188.25 210 193.75 197 189.25 172.5C184.75 148 171.75 134 166.75 129C161.75 124 148.75 121 142.75 129C136.75 137 144.25 151 146.25 163C148.25 175 150.25 183 142.75 197Z" fill="url(#paint11_linear_470_1668)"/>
</g>
<g opacity="0.8" filter="url(#filter15_f_470_1668)">
<path d="M154.471 135.606C151.348 135.346 148.494 139.197 149.5 143.5C164 205.5 129.667 218.834 121 232.5C112.669 245.637 101.412 260.776 118.76 247.038C120.249 245.858 121.861 244.726 123.464 243.707C173.737 211.793 164.363 167.73 160.603 148.675C159.608 143.633 159.592 136.034 154.471 135.606Z" fill="url(#paint12_linear_470_1668)"/>
</g>
<g opacity="0.4" filter="url(#filter16_f_470_1668)">
<path d="M177.379 164.476C177.675 158.333 169.415 161.215 169.978 166.305C175.556 216.771 153.819 221.403 147.405 231.399C141.335 240.857 133.167 251.734 145.161 242.486C146.66 241.331 148.256 240.22 149.851 239.202C193.065 211.645 177.015 172.017 177.379 164.476Z" fill="url(#paint13_linear_470_1668)"/>
</g>
<path d="M176.747 128.999C176.747 128.999 177.564 140.652 176.685 142.892C175.806 145.131 170.141 141.358 172.02 139.812C173.898 138.265 175.954 131.959 176.747 128.999Z" fill="#1E3D12"/>
<path d="M115.747 11.9994C115.747 11.9994 116.564 23.6521 115.685 25.8917C114.806 28.1313 109.141 24.358 111.02 22.8116C112.898 21.2652 114.954 14.9591 115.747 11.9994Z" fill="#1E3D12"/>
<path d="M114.621 219C114.621 219 119.172 223.559 119.616 224.81C120.059 226.061 116.335 226.536 116.559 225.213C116.783 223.89 115.36 220.52 114.621 219Z" fill="#1E3D12"/>
<path d="M138.75 186.185C138.75 186.185 145.903 185.306 148.142 186.185C150.382 187.064 146.608 192.728 145.062 190.85C143.516 188.972 141.71 186.978 138.75 186.185Z" fill="#1E3D12"/>
<path d="M128.559 72.9998C128.559 72.9998 127.557 80.1362 126.128 82.072C124.699 84.0077 120.205 78.8969 122.419 77.8894C124.634 76.8819 127.027 75.6534 128.559 72.9998Z" fill="#1E3D12"/>
<path d="M82.7499 49.0925C82.7499 49.0925 87.5447 53.538 89.75 54.5C91.9553 55.462 92.9336 50.0223 90.5119 50.2571C88.0901 50.4919 85.4035 50.6245 82.7499 49.0925Z" fill="#1E3D12"/>
<path d="M56.7516 256C56.7516 256 57.6307 263.152 56.7516 265.392C55.8725 267.631 50.2081 263.858 52.0865 262.312C53.965 260.765 55.9585 258.959 56.7516 256Z" fill="#1E3D12"/>
<path d="M49.25 181.5C49.25 181.5 47.9858 188.109 47.4017 189.597C46.8176 191.084 43.0543 188.578 44.3023 187.55C45.5503 186.523 48.7231 183.466 49.25 181.5Z" fill="#1E3D12"/>
<path fill-rule="evenodd" clip-rule="evenodd" d="M168.763 419.99C168.766 419.993 168.77 419.996 168.773 419.999C168.743 420.025 168.709 420.054 168.672 420.084C168.108 420.544 167.107 421.111 165.555 421.722C162.479 422.934 157.866 424.081 151.967 425.065C140.214 427.023 123.872 428.249 105.75 428.249C87.6279 428.249 71.2863 427.023 59.5331 425.065C53.6344 424.081 49.0209 422.934 45.9448 421.722C44.3931 421.111 43.3924 420.544 42.8276 420.084C42.7908 420.054 42.7574 420.025 42.727 419.999L42.7395 419.988C41.3758 418.815 42.9166 416.656 46.3647 415.193C42.1272 416.645 39.75 418.276 39.75 419.999C39.75 426.074 69.2992 430.999 105.75 430.999C142.201 430.999 171.75 426.074 171.75 419.999C171.75 418.277 169.375 416.647 165.14 415.195C168.589 416.658 170.131 418.818 168.763 419.99ZM169.061 419.691C169.061 419.691 169.059 419.697 169.052 419.707C169.054 419.704 169.056 419.7 169.057 419.698C169.06 419.693 169.061 419.691 169.061 419.691ZM42.4387 419.691C42.4387 419.691 42.4427 419.697 42.4479 419.708C42.4408 419.697 42.4387 419.691 42.4387 419.691ZM42.4387 420.307C42.4387 420.307 42.4408 420.301 42.4479 420.29C42.4427 420.301 42.4387 420.307 42.4387 420.307ZM169.052 420.29C169.059 420.301 169.061 420.307 169.061 420.307C169.061 420.307 169.057 420.301 169.052 420.29Z" fill="#E2C2A4"/>
<defs>
<filter id="filter0_f_470_1668" x="32.75" y="514.999" width="146" height="51" filterUnits="userSpaceOnUse" color-interpolation-filters="sRGB">
<feFlood flood-opacity="0" result="BackgroundImageFix"/>
<feBlend mode="normal" in="SourceGraphic" in2="BackgroundImageFix" result="shape"/>
<feGaussianBlur stdDeviation="8" result="effect1_foregroundBlur_470_1668"/>
</filter>
<filter id="filter1_i_470_1668" x="39.75" y="408.999" width="132" height="27.5" filterUnits="userSpaceOnUse" color-interpolation-filters="sRGB">
<feFlood flood-opacity="0" result="BackgroundImageFix"/>
<feBlend mode="normal" in="SourceGraphic" in2="BackgroundImageFix" result="shape"/>
<feColorMatrix in="SourceAlpha" type="matrix" values="0 0 0 0 0 0 0 0 0 0 0 0 0 0 0 0 0 0 127 0" result="hardAlpha"/>
<feOffset dy="5.5"/>
<feGaussianBlur stdDeviation="2.75"/>
<feComposite in2="hardAlpha" operator="arithmetic" k2="-1" k3="1"/>
<feColorMatrix type="matrix" values="0 0 0 0 0 0 0 0 0 0 0 0 0 0 0 0 0 0 0.25 0"/>
<feBlend mode="normal" in2="shape" result="effect1_innerShadow_470_1668"/>
</filter>
<filter id="filter2_i_470_1668" x="56.25" y="417.249" width="99" height="12.375" filterUnits="userSpaceOnUse" color-interpolation-filters="sRGB">
<feFlood flood-opacity="0" result="BackgroundImageFix"/>
<feBlend mode="normal" in="SourceGraphic" in2="BackgroundImageFix" result="shape"/>
<feColorMatrix in="SourceAlpha" type="matrix" values="0 0 0 0 0 0 0 0 0 0 0 0 0 0 0 0 0 0 127 0" result="hardAlpha"/>
<feOffset dy="-2.75"/>
<feGaussianBlur stdDeviation="2.75"/>
<feComposite in2="hardAlpha" operator="arithmetic" k2="-1" k3="1"/>
<feColorMatrix type="matrix" values="0 0 0 0 0 0 0 0 0 0 0 0 0 0 0 0 0 0 0.32 0"/>
<feBlend mode="normal" in2="shape" result="effect1_innerShadow_470_1668"/>
</filter>
<filter id="filter3_ii_470_1668" x="-0.64209" y="167.432" width="101.452" height="214.93" filterUnits="userSpaceOnUse" color-interpolation-filters="sRGB">
<feFlood flood-opacity="0" result="BackgroundImageFix"/>
<feBlend mode="normal" in="SourceGraphic" in2="BackgroundImageFix" result="shape"/>
<feColorMatrix in="SourceAlpha" type="matrix" values="0 0 0 0 0 0 0 0 0 0 0 0 0 0 0 0 0 0 127 0" result="hardAlpha"/>
<feOffset dx="8" dy="-16"/>
<feGaussianBlur stdDeviation="4"/>
<feComposite in2="hardAlpha" operator="arithmetic" k2="-1" k3="1"/>
<feColorMatrix type="matrix" values="0 0 0 0 0 0 0 0 0 0 0 0 0 0 0 0 0 0 0.25 0"/>
<feBlend mode="normal" in2="shape" result="effect1_innerShadow_470_1668"/>
<feColorMatrix in="SourceAlpha" type="matrix" values="0 0 0 0 0 0 0 0 0 0 0 0 0 0 0 0 0 0 127 0" result="hardAlpha"/>
<feOffset dx="-8" dy="12"/>
<feGaussianBlur stdDeviation="8"/>
<feComposite in2="hardAlpha" operator="arithmetic" k2="-1" k3="1"/>
<feColorMatrix type="matrix" values="0 0 0 0 0.499306 0 0 0 0 0.833333 0 0 0 0 0.381944 0 0 0 1 0"/>
<feBlend mode="normal" in2="effect1_innerShadow_470_1668" result="effect2_innerShadow_470_1668"/>
</filter>
<filter id="filter4_f_470_1668" x="5.48602" y="188.696" width="81.4781" height="162.017" filterUnits="userSpaceOnUse" color-interpolation-filters="sRGB">
<feFlood flood-opacity="0" result="BackgroundImageFix"/>
<feBlend mode="normal" in="SourceGraphic" in2="BackgroundImageFix" result="shape"/>
<feGaussianBlur stdDeviation="4" result="effect1_foregroundBlur_470_1668"/>
</filter>
<filter id="filter5_f_470_1668" x="18.486" y="182.696" width="81.4781" height="162.017" filterUnits="userSpaceOnUse" color-interpolation-filters="sRGB">
<feFlood flood-opacity="0" result="BackgroundImageFix"/>
<feBlend mode="normal" in="SourceGraphic" in2="BackgroundImageFix" result="shape"/>
<feGaussianBlur stdDeviation="4" result="effect1_foregroundBlur_470_1668"/>
</filter>
<filter id="filter6_f_470_1668" x="35.0016" y="194.45" width="64.9984" height="125.55" filterUnits="userSpaceOnUse" color-interpolation-filters="sRGB">
<feFlood flood-opacity="0" result="BackgroundImageFix"/>
<feBlend mode="normal" in="SourceGraphic" in2="BackgroundImageFix" result="shape"/>
<feGaussianBlur stdDeviation="4" result="effect1_foregroundBlur_470_1668"/>
</filter>
<filter id="filter7_f_470_1668" x="41.5331" y="224.17" width="72.1886" height="160.204" filterUnits="userSpaceOnUse" color-interpolation-filters="sRGB">
<feFlood flood-opacity="0" result="BackgroundImageFix"/>
<feBlend mode="normal" in="SourceGraphic" in2="BackgroundImageFix" result="shape"/>
<feGaussianBlur stdDeviation="8" result="effect1_foregroundBlur_470_1668"/>
</filter>
<filter id="filter8_i_470_1668" x="67.0898" y="12.4912" width="69.0536" height="429.58" filterUnits="userSpaceOnUse" color-interpolation-filters="sRGB">
<feFlood flood-opacity="0" result="BackgroundImageFix"/>
<feBlend mode="normal" in="SourceGraphic" in2="BackgroundImageFix" result="shape"/>
<feColorMatrix in="SourceAlpha" type="matrix" values="0 0 0 0 0 0 0 0 0 0 0 0 0 0 0 0 0 0 127 0" result="hardAlpha"/>
<feOffset dx="-8" dy="12"/>
<feGaussianBlur stdDeviation="8"/>
<feComposite in2="hardAlpha" operator="arithmetic" k2="-1" k3="1"/>
<feColorMatrix type="matrix" values="0 0 0 0 0.499306 0 0 0 0 0.833333 0 0 0 0 0.381944 0 0 0 1 0"/>
<feBlend mode="normal" in2="shape" result="effect1_innerShadow_470_1668"/>
</filter>
<filter id="filter9_f_470_1668" x="74" y="17" width="30" height="431" filterUnits="userSpaceOnUse" color-interpolation-filters="sRGB">
<feFlood flood-opacity="0" result="BackgroundImageFix"/>
<feBlend mode="normal" in="SourceGraphic" in2="BackgroundImageFix" result="shape"/>
<feGaussianBlur stdDeviation="4" result="effect1_foregroundBlur_470_1668"/>
</filter>
<filter id="filter10_f_470_1668" x="95" y="15" width="22" height="433" filterUnits="userSpaceOnUse" color-interpolation-filters="sRGB">
<feFlood flood-opacity="0" result="BackgroundImageFix"/>
<feBlend mode="normal" in="SourceGraphic" in2="BackgroundImageFix" result="shape"/>
<feGaussianBlur stdDeviation="4" result="effect1_foregroundBlur_470_1668"/>
</filter>
<filter id="filter11_f_470_1668" x="111" y="42" width="24" height="425" filterUnits="userSpaceOnUse" color-interpolation-filters="sRGB">
<feFlood flood-opacity="0" result="BackgroundImageFix"/>
<feBlend mode="normal" in="SourceGraphic" in2="BackgroundImageFix" result="shape"/>
<feGaussianBlur stdDeviation="4" result="effect1_foregroundBlur_470_1668"/>
</filter>
<filter id="filter12_f_470_1668" x="83.75" y="213" width="68" height="140" filterUnits="userSpaceOnUse" color-interpolation-filters="sRGB">
<feFlood flood-opacity="0" result="BackgroundImageFix"/>
<feBlend mode="normal" in="SourceGraphic" in2="BackgroundImageFix" result="shape"/>
<feGaussianBlur stdDeviation="8" result="effect1_foregroundBlur_470_1668"/>
</filter>
<filter id="filter13_f_470_1668" x="29.8625" y="388.119" width="135.28" height="83.1959" filterUnits="userSpaceOnUse" color-interpolation-filters="sRGB">
<feFlood flood-opacity="0" result="BackgroundImageFix"/>
<feBlend mode="normal" in="SourceGraphic" in2="BackgroundImageFix" result="shape"/>
<feGaussianBlur stdDeviation="8" result="effect1_foregroundBlur_470_1668"/>
</filter>
<filter id="filter14_ii_470_1668" x="95.1079" y="116.062" width="103.69" height="159.279" filterUnits="userSpaceOnUse" color-interpolation-filters="sRGB">
<feFlood flood-opacity="0" result="BackgroundImageFix"/>
<feBlend mode="normal" in="SourceGraphic" in2="BackgroundImageFix" result="shape"/>
<feColorMatrix in="SourceAlpha" type="matrix" values="0 0 0 0 0 0 0 0 0 0 0 0 0 0 0 0 0 0 127 0" result="hardAlpha"/>
<feOffset dx="8" dy="-8"/>
<feGaussianBlur stdDeviation="4"/>
<feComposite in2="hardAlpha" operator="arithmetic" k2="-1" k3="1"/>
<feColorMatrix type="matrix" values="0 0 0 0 0 0 0 0 0 0 0 0 0 0 0 0 0 0 0.16 0"/>
<feBlend mode="normal" in2="shape" result="effect1_innerShadow_470_1668"/>
<feColorMatrix in="SourceAlpha" type="matrix" values="0 0 0 0 0 0 0 0 0 0 0 0 0 0 0 0 0 0 127 0" result="hardAlpha"/>
<feOffset dx="-8" dy="10"/>
<feGaussianBlur stdDeviation="8"/>
<feComposite in2="hardAlpha" operator="arithmetic" k2="-1" k3="1"/>
<feColorMatrix type="matrix" values="0 0 0 0 0.499306 0 0 0 0 0.833333 0 0 0 0 0.381944 0 0 0 1 0"/>
<feBlend mode="normal" in2="effect1_innerShadow_470_1668" result="effect2_innerShadow_470_1668"/>
</filter>
<filter id="filter15_f_470_1668" x="101.644" y="127.594" width="70.1765" height="132.87" filterUnits="userSpaceOnUse" color-interpolation-filters="sRGB">
<feFlood flood-opacity="0" result="BackgroundImageFix"/>
<feBlend mode="normal" in="SourceGraphic" in2="BackgroundImageFix" result="shape"/>
<feGaussianBlur stdDeviation="4" result="effect1_foregroundBlur_470_1668"/>
</filter>
<filter id="filter16_f_470_1668" x="131" y="153" width="57" height="101" filterUnits="userSpaceOnUse" color-interpolation-filters="sRGB">
<feFlood flood-opacity="0" result="BackgroundImageFix"/>
<feBlend mode="normal" in="SourceGraphic" in2="BackgroundImageFix" result="shape"/>
<feGaussianBlur stdDeviation="4" result="effect1_foregroundBlur_470_1668"/>
</filter>
<linearGradient id="paint0_linear_470_1668" x1="39.75" y1="462.999" x2="166.937" y2="462.999" gradientUnits="userSpaceOnUse">
<stop/>
<stop offset="1" stop-opacity="0"/>
</linearGradient>
<linearGradient id="paint1_linear_470_1668" x1="64.25" y1="180.5" x2="20.1479" y2="338.078" gradientUnits="userSpaceOnUse">
<stop stop-color="#51A234"/>
<stop offset="1" stop-color="#43852C"/>
</linearGradient>
<linearGradient id="paint2_linear_470_1668" x1="46.224" y1="194.768" x2="46.224" y2="342.713" gradientUnits="userSpaceOnUse">
<stop stop-color="#3E782A"/>
<stop offset="1" stop-color="#2F5B20"/>
</linearGradient>
<linearGradient id="paint3_linear_470_1668" x1="59.224" y1="188.768" x2="59.224" y2="336.713" gradientUnits="userSpaceOnUse">
<stop stop-color="#3E782A"/>
<stop offset="1" stop-color="#2F5B20"/>
</linearGradient>
<linearGradient id="paint4_linear_470_1668" x1="67.5" y1="201" x2="67.5" y2="312" gradientUnits="userSpaceOnUse">
<stop stop-color="#3E782A"/>
<stop offset="1" stop-color="#2F5B20"/>
</linearGradient>
<linearGradient id="paint5_linear_470_1668" x1="64.25" y1="180.5" x2="20.1479" y2="338.078" gradientUnits="userSpaceOnUse">
<stop stop-color="#51A234"/>
<stop offset="1" stop-color="#43852C"/>
</linearGradient>
<linearGradient id="paint6_linear_470_1668" x1="75.0898" y1="216.861" x2="149.25" y2="206.499" gradientUnits="userSpaceOnUse">
<stop/>
<stop offset="1" stop-opacity="0"/>
</linearGradient>
<linearGradient id="paint7_linear_470_1668" x1="75.0898" y1="216.862" x2="149.25" y2="206.5" gradientUnits="userSpaceOnUse">
<stop/>
<stop offset="1" stop-opacity="0"/>
</linearGradient>
<linearGradient id="paint8_linear_470_1668" x1="89" y1="25" x2="89" y2="440" gradientUnits="userSpaceOnUse">
<stop stop-color="#3E782A"/>
<stop offset="1" stop-color="#2F5B20"/>
</linearGradient>
<linearGradient id="paint9_linear_470_1668" x1="106" y1="23" x2="106" y2="440" gradientUnits="userSpaceOnUse">
<stop stop-color="#3E782A"/>
<stop offset="1" stop-color="#2F5B20"/>
</linearGradient>
<linearGradient id="paint10_linear_470_1668" x1="123" y1="50" x2="123" y2="459" gradientUnits="userSpaceOnUse">
<stop stop-color="#3E782A"/>
<stop offset="1" stop-color="#2F5B20"/>
</linearGradient>
<linearGradient id="paint11_linear_470_1668" x1="203.75" y1="143.5" x2="112.75" y2="251.5" gradientUnits="userSpaceOnUse">
<stop stop-color="#51A234"/>
<stop offset="1" stop-color="#43852C"/>
</linearGradient>
<linearGradient id="paint12_linear_470_1668" x1="149.776" y1="114" x2="149.776" y2="261.946" gradientUnits="userSpaceOnUse">
<stop stop-color="#3E782A"/>
<stop offset="1" stop-color="#2F5B20"/>
</linearGradient>
<linearGradient id="paint13_linear_470_1668" x1="168.702" y1="144.729" x2="168.702" y2="252.935" gradientUnits="userSpaceOnUse">
<stop stop-color="#3E782A"/>
<stop offset="1" stop-color="#2F5B20"/>
</linearGradient>
</defs>
</svg>
