<svg width="34" height="34" viewBox="0 0 34 34" fill="none" xmlns="http://www.w3.org/2000/svg">
<path d="M29.3833 18.6333C29.45 18.1 29.5 17.5667 29.5 17C29.5 16.4333 29.45 15.9 29.3833 15.3667L32.9 12.6167C33.2166 12.3667 33.3 11.9167 33.1 11.55L29.7666 5.78333C29.6166 5.51667 29.3333 5.36667 29.0333 5.36667C28.9333 5.36667 28.8333 5.38333 28.75 5.41667L24.6 7.08333C23.7333 6.41667 22.8 5.86667 21.7833 5.45L21.15 1.03333C21.1 0.633333 20.75 0.333333 20.3333 0.333333H13.6666C13.25 0.333333 12.9 0.633333 12.85 1.03333L12.2166 5.45C11.2 5.86667 10.2666 6.43333 9.39998 7.08333L5.24998 5.41667C5.14998 5.38333 5.04998 5.36667 4.94998 5.36667C4.66664 5.36667 4.38331 5.51667 4.23331 5.78333L0.899976 11.55C0.68331 11.9167 0.78331 12.3667 1.09998 12.6167L4.61664 15.3667C4.54998 15.9 4.49998 16.45 4.49998 17C4.49998 17.55 4.54998 18.1 4.61664 18.6333L1.09998 21.3833C0.78331 21.6333 0.699976 22.0833 0.899976 22.45L4.23331 28.2167C4.38331 28.4833 4.66664 28.6333 4.96664 28.6333C5.06664 28.6333 5.16664 28.6167 5.24998 28.5833L9.39998 26.9167C10.2666 27.5833 11.2 28.1333 12.2166 28.55L12.85 32.9667C12.9 33.3667 13.25 33.6667 13.6666 33.6667H20.3333C20.75 33.6667 21.1 33.3667 21.15 32.9667L21.7833 28.55C22.8 28.1333 23.7333 27.5667 24.6 26.9167L28.75 28.5833C28.85 28.6167 28.95 28.6333 29.05 28.6333C29.3333 28.6333 29.6166 28.4833 29.7666 28.2167L33.1 22.45C33.3 22.0833 33.2166 21.6333 32.9 21.3833L29.3833 18.6333ZM26.0833 15.7833C26.15 16.3 26.1666 16.65 26.1666 17C26.1666 17.35 26.1333 17.7167 26.0833 18.2167L25.85 20.1L27.3333 21.2667L29.1333 22.6667L27.9666 24.6833L25.85 23.8333L24.1166 23.1333L22.6166 24.2667C21.9 24.8 21.2166 25.2 20.5333 25.4833L18.7666 26.2L18.5 28.0833L18.1666 30.3333H15.8333L15.5166 28.0833L15.25 26.2L13.4833 25.4833C12.7666 25.1833 12.1 24.8 11.4333 24.3L9.91664 23.1333L8.14998 23.85L6.03331 24.7L4.86664 22.6833L6.66664 21.2833L8.14998 20.1167L7.91664 18.2333C7.86664 17.7167 7.83331 17.3333 7.83331 17C7.83331 16.6667 7.86664 16.2833 7.91664 15.7833L8.14998 13.9L6.66664 12.7333L4.86664 11.3333L6.03331 9.31667L8.14998 10.1667L9.88331 10.8667L11.3833 9.73333C12.1 9.2 12.7833 8.8 13.4666 8.51667L15.2333 7.8L15.5 5.91667L15.8333 3.66667H18.15L18.4666 5.91667L18.7333 7.8L20.5 8.51667C21.2166 8.81667 21.8833 9.2 22.55 9.7L24.0666 10.8667L25.8333 10.15L27.95 9.3L29.1166 11.3167L27.3333 12.7333L25.85 13.9L26.0833 15.7833ZM17 10.3333C13.3166 10.3333 10.3333 13.3167 10.3333 17C10.3333 20.6833 13.3166 23.6667 17 23.6667C20.6833 23.6667 23.6666 20.6833 23.6666 17C23.6666 13.3167 20.6833 10.3333 17 10.3333ZM17 20.3333C15.1666 20.3333 13.6666 18.8333 13.6666 17C13.6666 15.1667 15.1666 13.6667 17 13.6667C18.8333 13.6667 20.3333 15.1667 20.3333 17C20.3333 18.8333 18.8333 20.3333 17 20.3333Z" fill="#858585"/>
</svg>
