<svg width="34" height="34" viewBox="0 0 34 34" fill="none" xmlns="http://www.w3.org/2000/svg">
<path d="M15.3333 27H18.6666V23.6667H15.3333V27ZM17 0.333336C7.79998 0.333336 0.333313 7.8 0.333313 17C0.333313 26.2 7.79998 33.6667 17 33.6667C26.2 33.6667 33.6666 26.2 33.6666 17C33.6666 7.8 26.2 0.333336 17 0.333336ZM17 30.3333C9.64998 30.3333 3.66665 24.35 3.66665 17C3.66665 9.65 9.64998 3.66667 17 3.66667C24.35 3.66667 30.3333 9.65 30.3333 17C30.3333 24.35 24.35 30.3333 17 30.3333ZM17 7C13.3166 7 10.3333 9.98334 10.3333 13.6667H13.6666C13.6666 11.8333 15.1666 10.3333 17 10.3333C18.8333 10.3333 20.3333 11.8333 20.3333 13.6667C20.3333 17 15.3333 16.5833 15.3333 22H18.6666C18.6666 18.25 23.6666 17.8333 23.6666 13.6667C23.6666 9.98334 20.6833 7 17 7Z" fill="#858585"/>
</svg>
