<svg width="28" height="36" viewBox="0 0 28 36" fill="none" xmlns="http://www.w3.org/2000/svg">
<path d="M24 12.3333H22.3334V9C22.3334 4.4 18.6 0.666664 14 0.666664C9.40002 0.666664 5.66669 4.4 5.66669 9V12.3333H4.00002C2.16669 12.3333 0.666687 13.8333 0.666687 15.6667V32.3333C0.666687 34.1667 2.16669 35.6667 4.00002 35.6667H24C25.8334 35.6667 27.3334 34.1667 27.3334 32.3333V15.6667C27.3334 13.8333 25.8334 12.3333 24 12.3333ZM9.00002 9C9.00002 6.23333 11.2334 4 14 4C16.7667 4 19 6.23333 19 9V12.3333H9.00002V9ZM24 32.3333H4.00002V15.6667H24V32.3333ZM14 27.3333C15.8334 27.3333 17.3334 25.8333 17.3334 24C17.3334 22.1667 15.8334 20.6667 14 20.6667C12.1667 20.6667 10.6667 22.1667 10.6667 24C10.6667 25.8333 12.1667 27.3333 14 27.3333Z" fill="#858585"/>
</svg>
